<?xml version="1.0" encoding="UTF-8"?>
<svg version="1.1" xmlns="http://www.w3.org/2000/svg" width="512" height="512">
<path d="M0 0 C168.96 0 337.92 0 512 0 C512 168.96 512 337.92 512 512 C343.04 512 174.08 512 0 512 C0 343.04 0 174.08 0 0 Z " fill="#FEFEFE" transform="translate(0,0)"/>
<path d="M0 0 C0.92397079 -0.00281982 1.84794159 -0.00563965 2.7999115 -0.00854492 C4.32492783 -0.00550858 4.32492783 -0.00550858 5.88075256 -0.00241089 C6.9491185 -0.00416321 8.01748444 -0.00591553 9.1182251 -0.00772095 C12.6641653 -0.01213677 16.21005596 -0.00920219 19.7559967 -0.00582886 C22.21217865 -0.00650202 24.66836052 -0.00747216 27.12454224 -0.00872803 C32.27863701 -0.01020468 37.43271448 -0.00805167 42.58680725 -0.00338745 C49.20262754 0.00230681 55.81840724 -0.00096747 62.43422604 -0.00695992 C67.50844632 -0.01056896 72.58265694 -0.0094253 77.65687752 -0.00683212 C80.09659899 -0.00616365 82.53632133 -0.0069885 84.97604179 -0.00931168 C88.38310452 -0.01184346 91.79010103 -0.00798995 95.19715881 -0.00241089 C96.71913879 -0.00544724 96.71913879 -0.00544724 98.27186584 -0.00854492 C99.19865646 -0.0057251 100.12544708 -0.00290527 101.08032227 0 C101.88613708 0.00037703 102.69195189 0.00075405 103.52218533 0.0011425 C106.32355353 0.17050731 108.11623337 0.62940948 110.10365295 2.65823364 C110.59865295 3.30792114 111.09365295 3.95760864 111.60365295 4.62698364 C112.09865295 5.25604614 112.59365295 5.88510864 113.10365295 6.53323364 C118.39947809 15.69059794 118.03357621 24.94708379 117.99806213 35.16273499 C118.00295466 36.90404531 118.00914614 38.64535238 118.01652002 40.38665396 C118.03289647 45.15852686 118.03060629 49.93023429 118.02514505 54.70212543 C118.02247208 59.85355643 118.03701159 65.0049436 118.04924011 70.15635681 C118.07028405 80.24308997 118.07483559 90.32976563 118.07305223 100.41651814 C118.07174423 108.61511936 118.07555068 116.81370265 118.08297729 125.01230049 C118.0850765 127.37452827 118.0871741 129.73675605 118.08927011 132.09898382 C118.09031364 133.27474718 118.09135717 134.45051054 118.09243232 135.66190309 C118.11133007 157.89309957 118.11028574 180.12426304 118.10346299 202.35546423 C118.09788628 222.69188042 118.1187193 243.02817068 118.15182346 263.36455744 C118.18555706 284.2497907 118.20072931 305.13496362 118.19610643 326.02022463 C118.19386162 337.74422665 118.19910693 349.46811224 118.22399902 361.19209099 C118.24500766 371.17186514 118.24860825 381.151459 118.22969943 391.13124054 C118.2205395 396.22215758 118.21940675 401.31273842 118.24005508 406.4036293 C118.25875801 411.06645409 118.25426916 415.72866714 118.23150927 420.39146859 C118.22732186 422.07575486 118.2315283 423.76008797 118.24510521 425.44432472 C118.32351502 435.88442431 117.79150907 444.66608246 110.22865295 452.62698364 C103.92348337 456.22993769 97.8044022 456.4281558 90.71546936 456.43338013 C89.74688995 456.44170364 88.77831055 456.45002716 87.78038025 456.45860291 C84.58861722 456.48262842 81.39705925 456.49146905 78.20521545 456.49807739 C75.96908003 456.50705427 73.73294518 456.51617629 71.49681091 456.5254364 C66.80796352 456.54191225 62.11918737 456.54962311 57.43031311 456.55252075 C51.4647988 456.5578816 45.499969 456.59547309 39.53464699 456.64126492 C34.91192786 456.6712373 30.28936891 456.67824878 25.66656113 456.6792469 C23.47003951 456.68341465 21.27351586 456.69570776 19.07709122 456.71676445 C1.85674142 456.86861787 -14.83240061 456.04832372 -28.39634705 444.12698364 C-29.08857361 443.51983521 -29.78080017 442.91268677 -30.4940033 442.28713989 C-44.26130089 429.31563985 -53.17470241 412.54707784 -54.67292845 393.63586092 C-54.77606477 389.99302787 -54.79183549 386.36111462 -54.77056885 382.71688843 C-54.77331715 381.32187179 -54.77737578 379.92685723 -54.7826125 378.53184772 C-54.79309509 374.74037106 -54.7851391 370.94913376 -54.773862 367.15766788 C-54.76495552 363.05269836 -54.77348186 358.94775802 -54.77972412 354.8427887 C-54.78917584 346.81882674 -54.78264476 338.7949552 -54.77046118 330.771 C-54.75679166 321.41770384 -54.75848332 312.06442884 -54.76059451 302.71112522 C-54.76377892 286.02013636 -54.75214687 269.32919029 -54.73252869 252.63821411 C-54.71351466 236.45688576 -54.70644502 220.27560752 -54.71202087 204.0942688 C-54.71808276 186.45036786 -54.71789501 168.80648891 -54.70653504 151.16258979 C-54.70532781 149.28037755 -54.70412182 147.39816531 -54.7029171 145.51595306 C-54.70231356 144.58998485 -54.70171002 143.66401664 -54.70108819 142.70998879 C-54.6972147 136.19578884 -54.69760042 129.68159709 -54.69950294 123.16739655 C-54.70162801 115.22811 -54.69637692 107.28886724 -54.68188939 99.34959301 C-54.67466146 95.3017548 -54.67055473 91.25398028 -54.67513275 87.2061367 C-54.67922601 83.49664056 -54.67399614 79.78727559 -54.66150668 76.07779929 C-54.6572185 74.10949184 -54.66265042 72.1411705 -54.66849595 70.17286706 C-54.56664299 49.47496115 -47.16704113 31.60741641 -32.89195251 16.60647583 C-25.46288562 9.25744785 -17.14204318 3.12698364 -6.39634705 3.12698364 C-6.39634705 2.46698364 -6.39634705 1.80698364 -6.39634705 1.12698364 C-4.03636214 -0.05300881 -2.63155777 0.00123183 0 0 Z " fill="#3E6EF9" transform="translate(363.39634704589844,27.873016357421875)"/>
<path d="M0 0 C0.94735519 0.00141495 1.89471039 0.0028299 2.87077332 0.00428772 C5.8865377 0.00987014 8.90222693 0.02241943 11.91796875 0.03515625 C13.9667958 0.04017352 16.01562402 0.04473603 18.06445312 0.04882812 C23.07815381 0.05983382 28.09179855 0.07708637 33.10546875 0.09765625 C33.10546875 0.75765625 33.10546875 1.41765625 33.10546875 2.09765625 C33.82734375 2.15953125 34.54921875 2.22140625 35.29296875 2.28515625 C39.09733658 3.38419585 40.59432165 5.05784661 43.10546875 8.09765625 C45.6654667 13.15875631 46.48154769 16.82955987 46.4885788 22.58685112 C46.49353831 23.31147885 46.49849783 24.03610658 46.50360763 24.78269273 C46.51653972 27.20580284 46.50818687 29.62835974 46.49987793 32.05148315 C46.50476797 33.80827923 46.51095829 35.56507209 46.51833582 37.32185948 C46.5347441 42.14578731 46.53241559 46.96955181 46.52696085 51.7934978 C46.52429177 56.99743327 46.53882015 62.20132508 46.55105591 67.40524292 C46.57211698 77.59886324 46.57665038 87.7924267 46.57486802 97.98606621 C46.57356078 106.27101289 46.57736263 114.55594182 46.58479309 122.84088516 C46.58689227 125.22668397 46.58898987 127.61248278 46.59108591 129.9982816 C46.59212944 131.18573161 46.59317297 132.37318162 46.59424812 133.59661497 C46.61315311 156.05763464 46.61209945 178.51862165 46.60527879 200.97964598 C46.59970272 221.53025973 46.62053108 242.08074884 46.65363926 262.63133346 C46.68736687 283.7300708 46.70254577 304.82874843 46.69792223 325.92751324 C46.69567666 337.77391472 46.70093364 349.62020098 46.72581482 361.46657944 C46.74681585 371.55146576 46.75043171 381.63617368 46.73151523 391.72106729 C46.72235022 396.86652746 46.721238 402.01165489 46.74187088 407.15708923 C46.76055511 411.8686673 46.75610594 416.57963952 46.73332506 421.29119433 C46.72913288 422.99436498 46.73336009 424.69758184 46.746921 426.40070365 C46.8290817 437.4746757 45.84801998 445.31891501 37.9375 453.62890625 C31.94082456 457.69883174 24.2540164 456.83482184 17.2980957 456.66015625 C14.80944007 456.59806719 12.3233371 456.57821696 9.83398438 456.56640625 C-1.98019607 456.45128148 -12.74527711 455.22700964 -23.89453125 451.09765625 C-23.89453125 450.43765625 -23.89453125 449.77765625 -23.89453125 449.09765625 C-24.77109375 448.85273438 -25.64765625 448.6078125 -26.55078125 448.35546875 C-35.28146125 445.07126436 -41.8155143 437.6925949 -46.89453125 430.09765625 C-47.53455078 429.27201172 -47.53455078 429.27201172 -48.1875 428.4296875 C-59.09850422 414.2957405 -61.04680704 396.98233328 -61.03497314 379.73934937 C-61.03755949 378.37313841 -61.0405734 377.00692822 -61.04397655 375.64071906 C-61.0520181 371.89630615 -61.05383453 368.15191244 -61.05457401 364.40749192 C-61.05642953 360.36506022 -61.06397936 356.32263838 -61.07070923 352.2802124 C-61.0842728 343.44532643 -61.09031417 334.61044501 -61.09471989 325.77555037 C-61.09748563 320.25546263 -61.10172358 314.73537663 -61.10622406 309.21529007 C-61.11841409 293.9215347 -61.12871397 278.62778073 -61.13209915 263.33402061 C-61.13231872 262.35578983 -61.13253828 261.37755905 -61.1327645 260.36968491 C-61.13298278 259.38915985 -61.13320106 258.40863479 -61.13342595 257.39839685 C-61.13386941 255.41159399 -61.13431597 253.42479114 -61.13476562 251.43798828 C-61.13498705 250.45247272 -61.13520848 249.46695717 -61.13543662 248.4515775 C-61.1393833 232.48846342 -61.15683453 216.52539502 -61.18012515 200.56229858 C-61.20386291 184.15988239 -61.2163021 167.7574891 -61.21746707 151.35505545 C-61.21838246 142.15109049 -61.2241005 132.94718506 -61.24228668 123.74323654 C-61.25772041 115.90487285 -61.26278886 108.0665871 -61.25454858 100.22821109 C-61.25065366 96.23266744 -61.25151474 92.23728059 -61.26560593 88.24175644 C-61.27841463 84.5761933 -61.27708692 80.91090368 -61.26501521 77.24534054 C-61.26215652 75.30773354 -61.27394094 73.3701215 -61.28643727 71.4325527 C-61.17238771 51.04412641 -53.86310536 33.65466267 -40.89453125 18.09765625 C-36.35399071 14.09765625 -36.35399071 14.09765625 -33.89453125 14.09765625 C-33.56453125 13.10765625 -33.23453125 12.11765625 -32.89453125 11.09765625 C-28.03283838 7.20830195 -21.19612101 3.09765625 -14.89453125 3.09765625 C-14.89453125 2.43765625 -14.89453125 1.77765625 -14.89453125 1.09765625 C-9.95462651 -0.19901266 -5.06615996 -0.02858424 0 0 Z " fill="#3F6FF9" transform="translate(209.89453125,27.90234375)"/>
<path d="M0 0 C0.763125 0.721875 1.52625 1.44375 2.3125 2.1875 C2.910625 2.64125 3.50875 3.095 4.125 3.5625 C7.11523051 7.65439438 6.44082266 13.77141701 6.44951439 18.61611652 C6.45349213 19.7114576 6.45349213 19.7114576 6.45755023 20.82892677 C6.46521253 23.27694021 6.46580122 25.72490324 6.46640015 28.17292786 C6.47041675 29.94535709 6.47485531 31.7177854 6.4796797 33.49021262 C6.49162823 38.36195708 6.49728962 43.23369165 6.50186086 48.10544789 C6.50782319 53.35914897 6.51943117 58.61283826 6.53015137 63.86653137 C6.55465649 76.55234958 6.56929747 89.23817168 6.58221143 101.92400625 C6.58592402 105.50651936 6.58989717 109.08903207 6.5939641 112.67154479 C6.61919554 134.91739024 6.641249 157.16323631 6.65369225 179.4090929 C6.65662193 184.55991938 6.6595836 189.71074584 6.66259766 194.86157227 C6.66334371 196.14178281 6.66408976 197.42199336 6.66485842 198.74099817 C6.67751944 219.49212841 6.71075429 240.24317311 6.75239949 260.99426333 C6.79480046 282.29636108 6.81838494 303.59841499 6.82361281 324.90055484 C6.82702843 336.86211975 6.83880199 348.82355084 6.87171555 360.78507423 C6.89969154 370.96878377 6.91072596 381.15233203 6.89952008 391.33607701 C6.89432773 396.5321713 6.89725811 401.72792771 6.92198563 406.92397308 C6.94443911 411.68183241 6.94376853 416.43911036 6.92478175 421.1969796 C6.92197634 422.91701081 6.92761034 424.63708111 6.94259469 426.35704932 C7.08141768 443.33119582 7.08141768 443.33119582 1.3125 450.1875 C-3.21352041 453.97250262 -7.53081209 453.68504567 -13.21484375 453.53125 C-25.81095652 452.28439069 -36.56203184 446.0743505 -44.9375 436.75 C-56.22198301 422.41565672 -60.16214071 405.35644898 -60.06845093 387.38598633 C-60.07191468 385.92399911 -60.07668402 384.46201451 -60.08263266 383.00003529 C-60.09507394 379.01408544 -60.0890039 375.02835304 -60.07967401 371.04240274 C-60.07285546 366.73149095 -60.08337859 362.42061521 -60.09161377 358.10971069 C-60.10492348 349.67706801 -60.1020857 341.24450562 -60.09337585 332.81185985 C-60.08658882 325.95583486 -60.08568699 319.09983231 -60.0889473 312.24380493 C-60.08963684 310.77772394 -60.08963684 310.77772394 -60.09034032 309.28202516 C-60.09129954 307.29621434 -60.09227218 305.31040352 -60.0932581 303.32459271 C-60.1018039 284.72247033 -60.09199057 266.12039238 -60.075857 247.51827729 C-60.06245456 231.57173293 -60.06478288 215.62525411 -60.07861328 199.67871094 C-60.0946834 181.14119101 -60.10098 162.60370997 -60.09177649 144.06618404 C-60.09082089 142.08785439 -60.08987777 140.10952473 -60.0889473 138.13119507 C-60.08825306 136.67129511 -60.08825306 136.67129511 -60.08754479 135.18190223 C-60.0849592 128.3375367 -60.0893166 121.49319592 -60.09638596 114.64883423 C-60.10481707 106.3029421 -60.10248698 97.95713456 -60.08654372 89.61125207 C-60.07868267 85.35657488 -60.07553228 81.10203853 -60.08549118 76.84736252 C-60.0944837 72.94642369 -60.08943093 69.04575518 -60.07355852 65.1448406 C-60.07022989 63.73988337 -60.07186116 62.33490292 -60.07918589 60.92996085 C-60.16028626 44.07019658 -56.32081144 26.9192357 -44.6875 14.1875 C-44.10742188 13.55070312 -43.52734375 12.91390625 -42.9296875 12.2578125 C-41.23916634 10.49148322 -39.50207483 8.82554379 -37.6875 7.1875 C-37.17960937 6.72472656 -36.67171875 6.26195312 -36.1484375 5.78515625 C-27.6632038 -1.09080899 -9.87704893 -6.3320685 0 0 Z " fill="#3F6FF9" transform="translate(89.6875,30.8125)"/>
<path d="M0 0 C0.99 0.33 1.98 0.66 3 1 C0.69 3.31 -1.62 5.62 -4 8 C-4 4.09161134 -2.49432124 2.88405893 0 0 Z " fill="#6B90FA" transform="translate(169,46)"/>
</svg>
