<svg width="278" height="65" viewBox="0 0 278 65" fill="none" xmlns="http://www.w3.org/2000/svg">
<mask id="mask0_2_886" style="mask-type:luminance" maskUnits="userSpaceOnUse" x="0" y="0" width="278" height="65">
<path d="M277.993 0H0V65H277.993V0Z" fill="white"/>
</mask>
<g mask="url(#mask0_2_886)">
<path d="M12.1483 15.3745C10.7412 15.3745 9.39172 15.8931 8.39672 16.8164C7.40177 17.7397 6.84277 18.9919 6.84277 20.2976V48.8429C6.84436 50.1477 7.40402 51.3983 8.39886 52.3207C9.39364 53.2426 10.7422 53.7604 12.1483 53.7604C12.5496 53.7604 12.9346 53.6125 13.2184 53.3493C13.5022 53.086 13.6616 52.7288 13.6616 52.3563V16.7787C13.6616 16.4062 13.5022 16.049 13.2184 15.7857C12.9346 15.5224 12.5496 15.3745 12.1483 15.3745Z" fill="#0A6CFF"/>
<path d="M28.3759 15.3745H25.6125C23.9056 15.3745 22.2686 16.0036 21.0615 17.1237C19.8546 18.2436 19.1765 19.7627 19.1765 21.3466V47.7995C19.1765 48.5835 19.343 49.3598 19.6665 50.0841C19.99 50.8084 20.4642 51.4664 21.0619 52.0203C21.6596 52.5748 22.3692 53.0139 23.15 53.3137C23.9308 53.6131 24.7676 53.767 25.6125 53.766H28.3759C28.8629 53.766 29.33 53.5866 29.6744 53.267C30.0188 52.9473 30.2122 52.5143 30.2122 52.062V17.095C30.2138 16.8701 30.1675 16.6471 30.076 16.4387C29.9845 16.2304 29.8496 16.0409 29.679 15.881C29.5084 15.7212 29.3055 15.5941 29.0819 15.5072C28.8583 15.4203 28.6184 15.3752 28.3759 15.3745Z" fill="#0A6CFF"/>
<path d="M51.7454 15.3744H42.1751C41.3289 15.373 40.4907 15.5263 39.7085 15.8258C38.9262 16.1253 38.2153 16.565 37.6164 17.1197C37.0175 17.6744 36.5424 18.3333 36.2182 19.0586C35.894 19.7839 35.7271 20.5614 35.7271 21.3466V47.7995C35.7271 48.5835 35.8936 49.3598 36.2172 50.0841C36.5407 50.8084 37.0149 51.4664 37.6125 52.0203C38.2103 52.5748 38.9198 53.0139 39.7007 53.3137C40.4814 53.613 41.3182 53.767 42.1632 53.766H51.7334C52.2205 53.766 52.6876 53.5866 53.0319 53.267C53.3763 52.9473 53.5698 52.5143 53.5698 52.062V17.095C53.5729 16.6426 53.3827 16.2075 53.0407 15.8849C52.6988 15.5624 52.233 15.3788 51.7454 15.3744Z" fill="#0A6CFF"/>
<path d="M83.3991 49.015V19.4983H89.3808C89.4652 20.3106 89.595 21.1184 89.7693 21.9183C89.9369 22.6343 90.2717 22.995 90.7143 22.995C91.157 22.995 91.4321 22.7897 92.0424 22.1736C92.8982 21.1305 94.006 20.2884 95.2765 19.7149C96.5471 19.1413 97.9447 18.8523 99.3577 18.8711C104.741 18.8711 107.887 22.4733 107.833 28.6397C107.843 29.053 107.826 29.4663 107.78 29.8775H100.488V29.117C100.488 26.6971 99.2141 25.2041 96.9952 25.2041C95.0568 25.2041 93.5617 26.131 92.6226 28.0348C91.8797 29.7485 91.5389 31.5896 91.6238 33.4352V49.015H83.3991Z" fill="#0A6CFF"/>
<path d="M108.264 34.3066C108.264 25.1042 115.579 18.577 125.054 18.577C135.366 18.577 141.515 24.8988 141.515 33.4852C141.521 34.5527 141.427 35.6187 141.234 36.6711H116.638C117.027 41.2001 120.352 44.0752 125.227 44.0752C129.163 44.0752 131.879 42.4823 132.764 39.807H140.965C139.415 46.0289 133.482 49.9919 125.227 49.9919C115.442 49.9919 108.264 43.6145 108.264 34.3066ZM116.692 31.5814H133.44C133.219 27.2133 129.893 24.366 125.239 24.366C120.586 24.366 117.135 27.2632 116.692 31.5814Z" fill="#0A6CFF"/>
<path d="M142.956 34.3066C142.956 25.1042 150.271 18.577 159.746 18.577C170.052 18.577 176.201 24.8988 176.201 33.4852C176.209 34.5525 176.117 35.6185 175.926 36.6711H151.33C151.719 41.2001 155.039 44.0752 159.92 44.0752C163.85 44.0752 166.565 42.4823 167.456 39.807H175.657C174.102 46.0289 168.174 49.9919 159.92 49.9919C150.092 49.9919 142.956 43.6145 142.956 34.3066ZM151.378 31.5814H168.126C167.905 27.2133 164.579 24.366 159.926 24.366C155.272 24.366 151.809 27.2632 151.366 31.5814H151.378Z" fill="#0A6CFF"/>
<path d="M213.884 34.2067C213.884 43.2038 206.958 49.953 197.812 49.953C193.769 49.953 190.503 48.5655 188.451 46.6672C188.255 46.4451 187.979 46.2971 187.673 46.251C187.285 46.251 187.076 46.5618 187.076 47.1279V61.5254H178.845V19.4983H184.94C184.995 20.4469 185.107 21.3919 185.275 22.329C185.442 23.1005 185.718 23.4391 186.214 23.4391C186.549 23.4391 187.046 23.1283 187.656 22.5121C190.096 20.0922 193.308 18.6269 197.961 18.6269C206.958 18.6269 213.884 25.2596 213.884 34.2067ZM186.842 34.2567C186.842 36.9819 187.673 39.1909 189.39 40.9171C190.259 41.7582 191.312 42.418 192.477 42.8525C193.643 43.2869 194.894 43.4862 196.149 43.4369C201.694 43.4369 205.409 39.7349 205.409 34.2844C205.409 28.9395 201.694 25.1819 196.149 25.1819C190.605 25.1819 186.842 28.8618 186.842 34.2567Z" fill="#0A6CFF"/>
<path d="M215.864 49.015V7.38748H224.065V49.015H215.864Z" fill="#0A6CFF"/>
<path d="M225.961 34.3066C225.961 25.1042 233.276 18.577 242.751 18.577C253.057 18.577 259.205 24.8988 259.205 33.4852C259.213 34.5525 259.121 35.6185 258.93 36.6711H234.329C234.718 41.2001 238.043 44.0752 242.918 44.0752C246.848 44.0752 249.563 42.4823 250.455 39.807H258.655C257.1 46.0289 251.172 49.9919 242.918 49.9919C233.108 49.9919 225.961 43.6145 225.961 34.3066ZM234.383 31.5814H251.131C250.91 27.2133 247.584 24.366 242.93 24.366C238.277 24.366 234.825 27.2632 234.383 31.5814Z" fill="#0A6CFF"/>
<path d="M260.193 44.8467C260.193 42.177 262.412 40.1678 265.51 40.1678C268.608 40.1678 270.893 42.177 270.893 44.8467C270.893 47.5164 268.674 49.5812 265.51 49.5812C262.346 49.5812 260.193 47.572 260.193 44.8467Z" fill="#0A6CFF"/>
<path d="M56.8823 15.4121V15.3777H57.1415V15.4121H57.033V15.6977H56.9908V15.4121H56.8823ZM57.2056 15.3777H57.2554L57.3727 15.6433H57.3771L57.4943 15.3777H57.5442V15.6977H57.5047V15.4545H57.5014L57.3935 15.6977H57.3563L57.2483 15.4545H57.245V15.6977H57.2056V15.3777Z" fill="#0A6CFF"/>
</g>
</svg>
